<?xml version="1.0" encoding="utf-8"?>
<!-- Generator: Adobe Illustrator 17.1.0, SVG Export Plug-In . SVG Version: 6.00 Build 0)  -->
<!DOCTYPE svg PUBLIC "-//W3C//DTD SVG 1.1//EN" "http://www.w3.org/Graphics/SVG/1.1/DTD/svg11.dtd">
<svg version="1.1" id="Calque_1" xmlns="http://www.w3.org/2000/svg" xmlns:xlink="http://www.w3.org/1999/xlink" x="0px" y="0px"
	 viewBox="0 0 157 158" enable-background="new 0 0 157 158" xml:space="preserve">
<polygon fill="#3B9FEA" points="78.5,0 85.4,13 94.9,1.7 99,15.9 110.6,6.8 111.6,21.5 124.9,15.1 122.8,29.7 137.1,26.1 132.1,40 
	146.8,39.5 139.1,52 153.5,54.5 143.3,65.1 157,70.7 144.8,78.9 157,87.2 143.3,92.7 153.5,103.3 139.1,105.9 146.8,118.4 
	132.1,117.9 137.1,131.7 122.8,128.2 124.9,142.8 111.6,136.3 110.6,151 99,142 94.9,156.1 85.4,144.9 78.5,157.8 71.6,144.9 
	62.1,156.1 58,142 46.4,151 45.3,136.3 32.1,142.8 34.1,128.2 19.8,131.7 24.9,117.9 10.1,118.4 17.9,105.9 3.4,103.3 13.6,92.7 
	0,87.2 12.2,78.9 0,70.7 13.6,65.1 3.4,54.5 17.9,52 10.1,39.5 24.9,40 19.8,26.1 34.1,29.7 32.1,15.1 45.3,21.5 46.4,6.8 58,15.9 
	62.1,1.7 71.6,13 "/>
<polygon opacity="0.13" points="110.1,60.9 95,51.9 85.7,51.9 73.4,53.3 64.6,54.6 60.8,59.2 53.3,55.1 50.3,57.4 42.5,62.3 
	39.7,98.1 39.7,104.7 84.5,146.6 85.5,144.9 94.9,156.1 99,142 110.6,151 111.7,136.3 124.9,142.8 122.9,128.2 137.2,131.7 
	132.2,117.9 146.9,118.4 139.1,105.9 153.6,103.3 143.4,92.7 148.8,90.5 116,59.6 "/>
<g>
	<path fill="#FFFFFF" d="M112.6,58.6H97.4c0.1-0.4,0.1-0.8,0.1-1.3c0-3.5-2.3-6.3-5.2-6.3H64.7c-2.9,0-5.2,2.8-5.2,6.3
		c0,0.4,0,0.9,0.1,1.3h-6.4v-3.6h-9.5v3.6C40.5,59,38,61.7,38,65v35.5c0,3.5,2.8,6.3,6.3,6.3h68.2c3.5,0,6.3-2.8,6.3-6.3V65
		C118.9,61.5,116.1,58.6,112.6,58.6z M46.9,70.9c-1.8,0-3.3-1.5-3.3-3.3c0-1.8,1.5-3.3,3.3-3.3c1.8,0,3.3,1.5,3.3,3.3
		C50.2,69.5,48.7,70.9,46.9,70.9z M78.5,104c-12.1,0-21.9-9.8-21.9-21.9c0-7.7,4-14.5,10-18.4h0c0.9-0.6,1.8-1.1,2.7-1.5
		c0,0,0,0,0,0c0.4-0.2,0.9-0.4,1.4-0.6c0,0,0.1,0,0.1,0c0.5-0.2,0.9-0.3,1.4-0.5c0,0,0.1,0,0.1,0c0.4-0.1,0.9-0.2,1.3-0.3
		c0.1,0,0.2,0,0.3-0.1c0.5-0.1,1-0.2,1.4-0.3c0,0,0.1,0,0.1,0c0.4-0.1,0.9-0.1,1.3-0.1c0.1,0,0.2,0,0.4,0c0.5,0,1-0.1,1.5-0.1
		s1,0,1.5,0.1c0.1,0,0.2,0,0.4,0c0.4,0,0.9,0.1,1.3,0.1c0,0,0.1,0,0.1,0c0.5,0.1,1,0.2,1.4,0.3c0.1,0,0.2,0,0.3,0.1
		c0.4,0.1,0.9,0.2,1.3,0.3c0,0,0.1,0,0.1,0c0.5,0.1,1,0.3,1.4,0.5c0,0,0.1,0,0.1,0c0.5,0.2,0.9,0.4,1.4,0.6c0,0,0,0,0,0
		c0.9,0.4,1.8,0.9,2.7,1.5l0,0c6,3.9,10,10.7,10,18.4C100.4,94.2,90.6,104,78.5,104z M112.9,66.1h-11.8c-1,0-1.7-0.8-1.7-1.7
		c0-1,0.8-1.7,1.7-1.7h11.8c1,0,1.7,0.8,1.7,1.7C114.6,65.4,113.8,66.1,112.9,66.1z"/>
	<path fill="#FFFFFF" d="M78.5,63.9c-10,0-18.2,8.1-18.2,18.2c0,10,8.1,18.2,18.2,18.2c10,0,18.2-8.1,18.2-18.2
		C96.7,72.1,88.5,63.9,78.5,63.9z M78.5,71c-5.1,0.1-9.5,3.4-10.9,8.4c-0.6,2.1-3.8,1.2-3.2-0.9c1.7-6.4,7.5-10.7,14.1-10.8
		C80.6,67.6,80.6,70.9,78.5,71z"/>
</g>
</svg>
