<?xml version="1.0" encoding="utf-8"?>
<!-- Generator: Adobe Illustrator 17.1.0, SVG Export Plug-In . SVG Version: 6.00 Build 0)  -->
<!DOCTYPE svg PUBLIC "-//W3C//DTD SVG 1.1//EN" "http://www.w3.org/Graphics/SVG/1.1/DTD/svg11.dtd">
<svg version="1.1" id="Calque_1" xmlns="http://www.w3.org/2000/svg" xmlns:xlink="http://www.w3.org/1999/xlink" x="0px" y="0px"
	 viewBox="0 0 157 158" enable-background="new 0 0 157 158" xml:space="preserve">
<polygon fill="#3B9FEA" points="78.2,0 85.1,12.9 94.5,1.7 98.6,15.8 110.2,6.8 111.2,21.4 124.4,15 122.4,29.6 136.7,26 
	131.7,39.8 146.3,39.3 138.6,51.8 153,54.4 142.8,64.9 156.4,70.4 144.3,78.7 156.4,86.9 142.8,92.4 153,103 138.6,105.5 146.3,118 
	131.7,117.5 136.7,131.3 122.4,127.8 124.4,142.3 111.2,135.9 110.2,150.5 98.6,141.5 94.5,155.6 85.1,144.4 78.2,157.3 71.3,144.4 
	61.8,155.6 57.8,141.5 46.2,150.5 45.1,135.9 31.9,142.3 34,127.8 19.7,131.3 24.7,117.5 10.1,118 17.8,105.5 3.4,103 13.5,92.4 
	-0.1,86.9 12.1,78.7 -0.1,70.4 13.5,64.9 3.4,54.4 17.8,51.8 10.1,39.3 24.7,39.8 19.7,26 34,29.6 31.9,15 45.1,21.4 46.2,6.8 
	57.8,15.8 61.8,1.7 71.3,12.9 "/>
<path opacity="0.13" d="M94.6,155.6l4.1-14.1l11.6,9l1-14.6l13.2,6.4l-2-14.5l14.2,3.5l-5-13.8l14.7,0.5l-7.8-12.5L153,103
	l-10.2-10.6l13.6-5.5l-12.2-8.2l6.4-4.3l-20.8-19.9l-5-1.2l0.9-0.7l-12.9-12.3c0,0-9.9,6.7-11.2,7.4c-1.2,0.6-6,5-6,5l2.5,8l1.2,8.1
	l-7.5,2l-7.5,2.7l-6.1-0.6h-6.8l-3.5,4.4l-11.4,7.3l-6,7.2l7.2,7.1l8.5,7.3l4.1,0.9h-4.8l-4.1,1.3h-5.7l-6-1.3l-5.8-4l-2.4,3.1
	l-3.9,2.2l-15.5,0.4l32.8,35l2.7-2.1l4.1,14.1l9.4-11.2l6.9,12.9l6.9-12.9L94.6,155.6z"/>
<g>
	<path fill="#FFFFFF" d="M71,70.6c0,0,24.7,0.9,23.5-6c-1.2-6.9-6.1-14.6,0-23.5s19.2-2.5,20.4,2c1.2,4.5,3.1,7.3,5.9,8.1
		c2.8,0.8,10.3,2.1,8.9,3.7c-1.3,1.6-4.3,1.5-11.6,1.6c-7.3,0.1-14.4,2.8-7.2,8.4c7.2,5.6,19.2,12.7,13,29.2c-6.3,16.6-48.2,16-67,4
		c-18.8-12-25.5-26.9-24-26.4c1.5,0.4-0.9-5.6,1.2-2.7c2.1,2.9,5.7,7.6,12.3,6.3C52.9,74,66.6,70.5,71,70.6z"/>
	<g>
		<path fill="#2F8CC3" d="M89.3,102.9c-8.2,0-14.8-6.6-14.8-14.8c0-8.2,6.6-14.8,14.8-14.8s14.8,6.6,14.8,14.8
			C104.1,96.3,97.5,102.9,89.3,102.9z M89.3,74.6c-7.4,0-13.5,6.1-13.5,13.5c0,7.4,6.1,13.5,13.5,13.5c7.4,0,13.5-6.1,13.5-13.5
			C102.8,80.7,96.8,74.6,89.3,74.6z"/>
		<path fill="#2F8CC3" d="M89.3,98.1c-5.5,0-10-4.5-10-10c0-5.5,4.5-10,10-10c5.5,0,10,4.5,10,10C99.3,93.6,94.8,98.1,89.3,98.1z
			 M89.3,80.4c-4.3,0-7.7,3.5-7.7,7.7c0,4.3,3.5,7.7,7.7,7.7s7.7-3.5,7.7-7.7C97.1,83.9,93.6,80.4,89.3,80.4z"/>
		<rect x="93.8" y="87.1" fill="#2F8CC3" width="12.9" height="2.1"/>
		<rect x="71.4" y="87.1" fill="#2F8CC3" width="12.9" height="2.1"/>
		<rect x="88.1" y="93.1" fill="#2F8CC3" width="2.1" height="12.9"/>
		<rect x="88.1" y="70.7" fill="#2F8CC3" width="2.1" height="12.9"/>
	</g>
	<g>
		<path fill="#FFFFFF" d="M20.5,108.5c2.2,0,4.4,0,6.5-0.1c2.2-0.1,4.3-0.3,6.4-0.6c1.1-0.2,2.1-0.4,3.1-0.6c0.5-0.1,1-0.3,1.5-0.4
			c0.5-0.2,1-0.3,1.4-0.5c0.5-0.2,0.9-0.4,1.3-0.7c0.2-0.1,0.4-0.2,0.5-0.4c0.2-0.1,0.3-0.3,0.4-0.4c0.1-0.1,0.2-0.3,0.3-0.4
			c0.1-0.1,0.1-0.3,0.2-0.4c0.1-0.1,0.1-0.3,0.1-0.5c0-0.2,0-0.3,0-0.5l0.4-3.4l2.4,2.4c0.3,0.3,0.9,0.8,1.4,1.1
			c0.5,0.4,1,0.7,1.6,1c0.6,0.3,1.1,0.6,1.7,0.9c0.6,0.2,1.2,0.5,1.8,0.7c0.6,0.2,1.2,0.4,1.8,0.5c0.6,0.2,1.2,0.3,1.9,0.4
			c0.6,0.1,1.3,0.2,1.9,0.2c0.6,0,1.3,0.1,1.9,0.1l1,0c0.1,0,0.4,0,0.4,0l0.5,0c0.7-0.1,1.4-0.1,2-0.2l0.9-0.1l0.9-0.2
			c0.6-0.1,1.2-0.3,1.8-0.5c0.6-0.2,1.1-0.4,1.7-0.7c0.5-0.3,1-0.6,1.5-0.9c0.5-0.3,0.9-0.7,1.2-1c0.2-0.2,0.3-0.4,0.5-0.6l0.2-0.3
			c0-0.1,0.1-0.2,0.1-0.1l3.8-0.7c0.3,0.3,0.8,0.7,1.3,1.1c0.5,0.4,1,0.7,1.5,1.1c0.5,0.3,1,0.6,1.5,0.9c0.5,0.3,1.1,0.5,1.6,0.8
			c0.6,0.2,1.1,0.4,1.7,0.6c0.6,0.2,1.1,0.4,1.7,0.5c0.6,0.2,1.2,0.2,1.8,0.3c0.6,0.1,1.2,0.1,1.8,0.1c0.6,0,1.2,0,1.8,0l0.1,0l0,0
			l0,0c0,0-0.3,0-0.1,0l0,0l0.1,0l0.2,0l0.5-0.1l1-0.1l1-0.1l0.5-0.1c0.2,0,0.3-0.1,0.4-0.1l1.6-0.4c0.6-0.1,1.1-0.4,1.6-0.6
			c0.6-0.2,1-0.5,1.5-0.8c0.5-0.3,0.8-0.7,1.3-1l0.5-0.6c0.1-0.1,0.1-0.2,0.2-0.3l0.1-0.1c0,0,0,0,0,0l2.3-1.5l0.8,0.9
			c0.3,0.3,0.8,0.8,1.2,1.2c0.5,0.4,0.9,0.8,1.4,1.1c0.5,0.3,1,0.7,1.5,1c0.5,0.3,1.1,0.6,1.6,0.9c0.6,0.3,1.1,0.5,1.7,0.7
			c0.6,0.2,1.2,0.4,1.8,0.6c0.6,0.2,1.2,0.3,1.8,0.4c0.6,0.1,1.2,0.2,1.9,0.3c0.6,0.1,1.2,0.1,1.9,0.1c0.6,0,1.3,0,1.9,0l2,0
			l1.9-0.1l1-0.1l1-0.1c0.6-0.1,1.3-0.2,1.9-0.3c0.6-0.1,1.3-0.3,1.9-0.5c0.3-0.1,0.6-0.2,0.9-0.3c0.3-0.1,0.6-0.3,0.9-0.5
			c-0.5,0.5-1,0.9-1.6,1.2c-0.6,0.3-1.2,0.6-1.8,0.8c-0.6,0.3-1.3,0.4-1.9,0.6l-1,0.3l-1,0.2c-0.7,0.1-1.3,0.3-2,0.4l-2,0.3
			c-0.7,0.1-1.3,0.2-2,0.3c-0.7,0-1.4,0.1-2.1,0.1c-0.7,0-1.4,0-2.1-0.1c-0.7-0.1-1.4-0.1-2.1-0.3c-0.7-0.1-1.4-0.3-2-0.5
			c-0.7-0.2-1.3-0.4-2-0.6c-0.7-0.3-1.3-0.5-1.9-0.8c-0.6-0.3-1.3-0.7-1.9-1c-0.6-0.4-1.2-0.8-1.8-1.2c-0.6-0.4-1.1-0.9-1.7-1.5
			l3.1-0.6c-0.4,1.1-0.9,1.6-1.4,2.3c-0.6,0.5-1.1,1.2-1.8,1.6c-0.6,0.4-1.3,0.9-2,1.2c-0.7,0.3-1.3,0.7-2.1,0.9l-2.2,0.7
			c-0.2,0.1-0.4,0.1-0.5,0.2l-0.5,0.1l-1,0.2l-1,0.2l-0.5,0.1l-0.2,0l-0.1,0l-0.2,0l0,0l-0.1,0c-0.7,0-1.5,0.1-2.2,0.1
			c-0.7,0-1.5,0-2.2-0.1c-0.7-0.1-1.5-0.2-2.2-0.3c-0.7-0.1-1.4-0.3-2.2-0.5c-0.7-0.2-1.4-0.5-2.1-0.8c-0.7-0.3-1.3-0.6-2-1
			c-0.7-0.3-1.3-0.7-1.9-1.1c-0.6-0.4-1.2-0.8-1.8-1.3c-0.6-0.5-1.1-0.9-1.7-1.6l3.8-0.7c-0.2,0.4-0.3,0.6-0.4,0.8
			c-0.1,0.2-0.3,0.4-0.4,0.6c-0.3,0.4-0.6,0.7-0.9,1c-0.6,0.6-1.3,1.2-1.9,1.6c-0.7,0.5-1.4,0.9-2.1,1.2c-0.7,0.4-1.5,0.6-2.2,0.9
			c-0.7,0.2-1.5,0.4-2.2,0.6l-1.1,0.2l-1.2,0.1c-0.8,0.1-1.5,0.1-2.2,0.2l-0.5,0c-0.3,0-0.4,0-0.6,0l-1.1,0c-0.7,0-1.5-0.1-2.2-0.2
			c-0.7-0.1-1.5-0.2-2.2-0.3c-0.7-0.2-1.5-0.3-2.2-0.6c-0.7-0.2-1.4-0.5-2.1-0.8c-0.7-0.3-1.4-0.6-2-1c-0.7-0.4-1.3-0.7-1.9-1.2
			c-0.6-0.4-1.2-0.9-1.8-1.4c-0.6-0.5-1.1-1-1.7-1.7l2.9-1.1c0,0.4-0.1,0.8-0.1,1.1c-0.1,0.4-0.2,0.8-0.4,1.1
			c-0.2,0.3-0.4,0.7-0.6,1c-0.2,0.3-0.5,0.6-0.7,0.8c-0.3,0.2-0.5,0.4-0.8,0.6c-0.3,0.2-0.6,0.3-0.8,0.5c-0.6,0.3-1.1,0.5-1.7,0.7
			c-0.6,0.2-1.1,0.3-1.7,0.5c-0.6,0.1-1.1,0.2-1.7,0.3c-1.1,0.1-2.2,0.2-3.4,0.2c-2.2,0.1-4.4,0-6.6-0.3
			C24.8,109.2,22.6,108.9,20.5,108.5z"/>
	</g>
</g>
</svg>
