<?xml version="1.0" encoding="utf-8"?>
<!-- Generator: Adobe Illustrator 17.1.0, SVG Export Plug-In . SVG Version: 6.00 Build 0)  -->
<!DOCTYPE svg PUBLIC "-//W3C//DTD SVG 1.1//EN" "http://www.w3.org/Graphics/SVG/1.1/DTD/svg11.dtd">
<svg version="1.1" id="Calque_1" xmlns="http://www.w3.org/2000/svg" xmlns:xlink="http://www.w3.org/1999/xlink" x="0px" y="0px"
	 viewBox="0 0 157 158" enable-background="new 0 0 157 158" xml:space="preserve">
<polygon fill="#3B9FEA" points="78.5,-0.2 85.5,12.8 94.9,1.5 99,15.6 110.6,6.6 111.7,21.3 124.9,14.8 122.9,29.4 137.2,25.9 
	132.2,39.7 146.9,39.2 139.1,51.7 153.6,54.3 143.4,64.9 157,70.5 144.8,78.7 157,87 143.4,92.5 153.6,103.1 139.1,105.7 
	146.9,118.2 132.2,117.7 137.2,131.5 122.9,128 124.9,142.6 111.7,136.2 110.6,150.8 99,141.8 94.9,155.9 85.5,144.7 78.5,157.7 
	71.6,144.7 62.1,155.9 58,141.8 46.4,150.8 45.4,136.2 32.1,142.6 34.1,128 19.8,131.5 24.9,117.7 10.1,118.2 17.9,105.7 3.4,103.1 
	13.6,92.5 0,87 12.2,78.7 0,70.5 13.6,64.9 3.4,54.3 17.9,51.7 10.1,39.2 24.9,39.7 19.8,25.9 34.1,29.4 32.1,14.8 45.4,21.3 
	46.4,6.6 58,15.6 62.1,1.5 71.6,12.8 "/>
<polygon opacity="0.13" points="110.6,150.8 111.7,136.2 124.9,142.6 122.9,128 137.2,131.5 132.2,117.7 146.9,118.2 139.1,105.7 
	153.6,103.1 143.4,92.5 157,87 144.8,78.7 148.1,76.5 111.6,42 78.5,44 47.8,42 46,66 51.7,70.8 49.9,72.3 58.6,82.8 58.6,115.7 
	96.2,151.7 99,141.8 "/>
<g>
	<path fill="#FFFFFF" d="M85,74.4c-3.4-0.3-6.9-0.6-10.3-0.9c-2.1-2.7-4.2-5.5-6.3-8.2c-0.4-0.5-0.9-0.9-1.5-1.2
		c1.8-1.1,3-3.2,3-5.5c0-3.6-2.9-6.4-6.4-6.4c-3.6,0-6.4,2.9-6.4,6.4c0,2.3,1.2,4.3,3,5.5c-0.2,0-0.3,0.1-0.5,0.1
		c-1.1-0.9-2.7-1.2-3.9,0.1c-3,3-5.9,6.1-8.9,9.1c-1.4,1.5-0.9,3.5,0.6,4.6c3,2.2,5.9,4.4,8.9,6.6c0.1,0.1,0.2,0.1,0.3,0.2v1.9
		c0,0,0,0,0,0c0,0.1,0,0.3,0,0.4c0.1,8.6,0.2,17.2,0.3,25.8c0,3.8,6,3.9,5.9,0c-0.1-7.4-0.2-14.9-0.3-22.3h0.4
		c0.1,7.4,0.2,14.8,0.3,22.3c0,3.8,6,3.9,5.9,0c-0.1-8.6-0.2-17.2-0.3-25.8c0,0,0,0,0,0c0-0.2,0-0.3,0-0.5V75.8
		c0.7,1,1.4,1.9,2.2,2.7c1.5,1.5,5.4,1.1,7.4,1.3c2.2,0.2,4.3,0.4,6.5,0.5C88.7,80.7,88.7,74.8,85,74.4z M53.4,75.3
		c1.1-1.1,2.2-2.2,3.2-3.3v5.7C55.5,76.9,54.5,76.1,53.4,75.3z"/>
	<path fill="#FFFFFF" d="M110,41.4c-19.4,0-38.8,0-58.2,0c-1.6,0-3.1,0-4.7,0c-1.5,0-2.8,1.3-2.8,2.8c0,6.4,0,12.9,0,19.3
		c0,3.6,5.5,3.6,5.5,0c0-5.5,0-11,0-16.6c12.2,0,24.5,0,36.7,0v63.6c-2,0-4,0-6,0c-3.6,0-3.6,5.5,0,5.5c9.8,0,19.6,0,29.5,0
		c1.5,0,2.8-1.3,2.8-2.8c0-19.7,0-39.4,0-59.1c0-3.3,0-6.7,0-10C112.7,42.7,111.5,41.4,110,41.4z"/>
	<g>
		<path fill="#2F8CC3" d="M106.3,71C106.3,71,106.3,71,106.3,71c-2.1-2.5-4.1-5.1-6.2-7.6c-0.2-0.3-0.8-0.3-1,0
			C97,66,95,68.5,92.9,71c-0.4,0.5-0.2,1.2,0.5,1.2c4,0,8.1,0,12.1,0c0.2,0.1,0.3,0,0.5,0C106.5,72,106.6,71.4,106.3,71z"/>
		<path fill="#2F8CC3" d="M92.9,77.7C92.9,77.7,92.9,77.7,92.9,77.7c2.1,2.5,4.1,5.1,6.2,7.6c0.2,0.3,0.8,0.3,1,0
			c2.1-2.5,4.1-5.1,6.2-7.6c0.4-0.5,0.2-1.2-0.5-1.2c-4,0-8.1,0-12.1,0c-0.2-0.1-0.3,0-0.5,0C92.7,76.7,92.6,77.3,92.9,77.7z"/>
	</g>
</g>
</svg>
